<svg xmlns="http://www.w3.org/2000/svg" xmlns:xlink="http://www.w3.org/1999/xlink" width="16" height="18" viewBox="0 0 16 18">
    <defs>
        <path id="a" d="M7.718 17.235H0V0h15.436v17.235z"/>
    </defs>
    <g fill="none" fill-rule="evenodd" transform="translate(.585 .769)">
        <mask id="b" fill="#fff">
            <use xlink:href="#a"/>
        </mask>
        <path fill="#000" d="M3.857 2.147h7.713V5.74h-.98L8.004 2.987a.376.376 0 0 0-.305-.122.394.394 0 0 0-.294.144l-.907 1.126-.366-.418a.396.396 0 0 0-.278-.133.386.386 0 0 0-.291.102L3.857 5.242V2.147zM7.713.95l.386.478h-.771L7.713.95zm.185 4.79L7 4.71l.737-.915L9.565 5.74H7.898zm-3.482 0L5.8 4.476 6.903 5.74H4.416zm-1.3.495c.009.02.024.036.037.054.014.02.023.043.043.06 0 .002.001.002.002.003a.386.386 0 0 0 .139.08.413.413 0 0 0 .13.025l.004.001h8.485c.213 0 .385-.16.385-.36v-4.31c0-.198-.172-.359-.385-.359H9.063L8.022.136c-.146-.181-.472-.181-.617 0L6.363 1.429H3.471c-.213 0-.386.16-.386.36v4.309l.002.007c0 .044.01.089.028.13zm12.059 6.889c-1.103-.35-2.06-1.27-2.635-2.508.341-.188.573-.53.573-.925 0-.594-.52-1.078-1.157-1.078-.638 0-1.157.484-1.157 1.078 0 .392.228.733.565.921-.758 1.636-2.14 2.67-3.651 2.67-1.511 0-2.894-1.033-3.652-2.67.338-.187.567-.529.567-.92 0-.595-.52-1.079-1.157-1.079-.638 0-1.157.484-1.157 1.078 0 .395.232.738.574.925-.575 1.236-1.527 2.155-2.627 2.506-.202.064-.309.268-.24.456.055.15.204.243.365.243.04 0 .083-.007.125-.019 1.014-.324 1.912-1.047 2.574-2.018v5.092c0 .198.173.359.386.359.213 0 .386-.161.386-.36V11.8c.936 1.372 2.338 2.202 3.856 2.202 1.518 0 2.92-.83 3.857-2.203v5.077c0 .198.173.359.386.359.213 0 .385-.161.385-.36v-5.092c.665.974 1.566 1.698 2.585 2.021.041.014.084.02.124.02.16 0 .31-.094.365-.245.069-.187-.04-.391-.24-.455zm-5.148-9.18c.426 0 .772-.322.772-.719 0-.396-.346-.718-.772-.718-.425 0-.771.322-.771.718 0 .397.346.719.771.719z" mask="url(#b)"/>
    </g>
</svg>
