<svg xmlns="http://www.w3.org/2000/svg" xmlns:xlink="http://www.w3.org/1999/xlink" width="15" height="14" viewBox="0 0 15 14">
    <defs>
        <path id="a" d="M0 13.492h14.646V0H0z"/>
    </defs>
    <g fill="none" fill-rule="evenodd" transform="translate(.357 .255)">
        <mask id="b" fill="#fff">
            <use xlink:href="#a"/>
        </mask>
        <path fill="#000" d="M7.407 4.932c-.02.02-.02.039-.039.058-.02-.02-.02-.038-.039-.058-.86-1.458-2.974-1.017-2.974.768 0 1.631 3.013 3.57 3.013 3.57s3.013-1.939 3.013-3.57c0-1.785-2.113-2.226-2.974-.768M7.368.96c-3.482 0-6.3 2.38-6.3 5.316 0 1.228.509 2.418 1.429 3.378.43.441-.02 1.074-.764 2.11-.136.212-.332.461-.47.692.705-.192 1.8-.595 2.466-.826.9-.326 1.057-.384 1.213-.384h.078l.079.02c.724.23 1.487.364 2.27.364 3.482 0 6.3-2.38 6.3-5.316S10.85.96 7.368.96M.696 13.492a.755.755 0 0 1-.43-.115.603.603 0 0 1-.255-.365c-.079-.403.235-.864.92-1.804.215-.307.567-.806.704-1.055C.638 9.059.09 7.696.09 6.276.09 2.82 3.357 0 7.368 0c4.011 0 7.278 2.821 7.278 6.276 0 3.454-3.267 6.276-7.278 6.276a8.027 8.027 0 0 1-2.445-.365c-.176.057-.529.192-.861.307-1.487.557-2.779.998-3.365.998" mask="url(#b)"/>
    </g>
</svg>
