<svg xmlns="http://www.w3.org/2000/svg" width="16" height="13" viewBox="0 0 16 13">
    <g fill="#000" fill-rule="evenodd">
        <path d="M14.64 11.05H1.183c-.33 0-.598.252-.598.565 0 .312.267.58.598.58h13.441c.331 0 .599-.253.599-.565a.581.581 0 0 0-.583-.58M1.798 9.056c.079-3.11 2.789-5.624 6.114-5.624 3.324 0 6.035 2.514 6.113 5.624H1.798zm4.822-6.71c0-.64.551-1.146 1.229-1.146.677 0 1.229.521 1.229 1.146v.015a9.84 9.84 0 0 0-.694-.074h-.898a5.114 5.114 0 0 0-.835.104v-.045H6.62zm8.603 6.546v-.104c0-.074-.016-.149-.016-.208 0-.045 0-.075-.016-.12a.826.826 0 0 0-.031-.193c0-.044-.016-.074-.016-.119-.016-.074-.031-.149-.031-.208 0-.03-.016-.06-.016-.09-.016-.103-.047-.193-.063-.297 0-.03-.016-.044-.016-.074-.016-.075-.047-.149-.063-.209-.016-.044-.031-.074-.031-.119a.807.807 0 0 0-.063-.178c-.016-.045-.032-.074-.048-.12-.015-.059-.047-.103-.063-.163-.015-.044-.031-.074-.047-.119-.031-.06-.047-.119-.079-.163-.016-.03-.031-.075-.047-.105-.047-.089-.079-.163-.126-.252a.594.594 0 0 0-.079-.134c-.031-.045-.047-.09-.079-.134a.594.594 0 0 1-.078-.134c-.032-.045-.048-.075-.08-.12l-.094-.133c-.016-.03-.047-.06-.063-.104-.031-.045-.063-.104-.11-.149-.016-.015-.032-.045-.047-.06-.095-.119-.19-.223-.284-.342l-.032-.03a1.372 1.372 0 0 0-.141-.148c-.016-.015-.032-.045-.048-.06-.047-.044-.094-.104-.141-.148l-.048-.045-.157-.149-.032-.03a7.053 7.053 0 0 0-.835-.64c-.016 0-.016-.014-.031-.014-.08-.045-.142-.09-.221-.134l-.016-.015a7.719 7.719 0 0 0-1.229-.595h-.016c-.078-.03-.173-.06-.252-.09v-.178c0-1.25-1.071-2.261-2.41-2.261-1.324 0-2.396 1.011-2.396 2.261v.164c-.094.03-.173.06-.268.089H5.25c-.441.164-.851.357-1.245.595 0 0-.016 0-.016.015-.079.045-.142.09-.22.134l-.016.015c-.3.193-.567.401-.835.64l-.032.03c-.063.044-.11.103-.157.148l-.048.045c-.047.044-.094.104-.157.148-.016.015-.032.03-.048.06-.047.06-.094.104-.141.164l-.016.014c-.095.12-.205.238-.3.358-.015.014-.031.044-.047.059-.031.045-.079.104-.11.149-.016.03-.047.06-.063.09l-.095.133c-.031.03-.047.074-.078.104a.594.594 0 0 0-.08.134c-.03.045-.046.09-.078.134-.031.045-.047.09-.079.134a1.287 1.287 0 0 0-.126.253c-.016.03-.031.074-.047.104-.032.06-.047.104-.079.164-.016.044-.031.074-.047.119-.016.059-.047.104-.063.163-.016.045-.032.075-.047.12-.016.059-.048.118-.063.178-.016.044-.032.074-.032.119-.016.074-.047.149-.063.208 0 .03-.016.045-.016.074-.031.09-.047.194-.063.298 0 .03-.016.06-.016.09-.015.074-.031.133-.031.208 0 .03-.016.074-.016.119-.016.059-.016.133-.031.193 0 .045-.016.074-.016.119 0 .074-.016.149-.016.208v.104c0 .105-.016.209-.016.313v.416c0 .313.268.566.6.566h13.44c.33 0 .599-.253.599-.566v-.416c0-.075 0-.179-.016-.283z"/>
    </g>
</svg>
