<svg xmlns="http://www.w3.org/2000/svg" xmlns:xlink="http://www.w3.org/1999/xlink" width="13" height="12" viewBox="0 0 13 12">
    <defs>
        <path id="a" d="M12.319.037V11.87H0V.037h12.319z"/>
    </defs>
    <g fill="none" fill-rule="evenodd" style="mix-blend-mode:multiply">
        <g transform="translate(.13 .056)">
            <mask id="b" fill="#fff">
                <use xlink:href="#a"/>
            </mask>
            <path fill="#000" d="M9.12.764C6.143-.804 2.39.248.758 3.11-.876 5.97.22 9.575 3.198 11.143c2.978 1.57 6.73.517 8.363-2.344 1.633-2.862.538-6.466-2.44-8.035" mask="url(#b)"/>
        </g>
        <path fill="#FFF" d="M10.901 8.439c-.018.032-.038.063-.057.095l-.947-.51a.322.322 0 0 0-.363.042L7.74 9.66a.29.29 0 0 0-.07.344l.369.77a5.466 5.466 0 0 1-2.644.215l.154-.75a.295.295 0 0 0-.153-.318L3.263 8.776a.32.32 0 0 0-.362.04l-.579.516A4.994 4.994 0 0 1 1.173 7.19l.885-.102a.305.305 0 0 0 .268-.238l.476-2.303a.294.294 0 0 0-.154-.318l-1.026-.552c.018-.032.034-.065.053-.098a5.12 5.12 0 0 1 1.832-1.86l.319.648a.313.313 0 0 0 .32.168L6.57 2.24a.306.306 0 0 0 .266-.24l.195-.993c.61.084 1.214.271 1.786.572.451.238.85.53 1.197.863l-.86.778a.29.29 0 0 0-.069.345l1.044 2.124a.314.314 0 0 0 .32.168l1.09-.134a4.863 4.863 0 0 1-.638 2.717"/>
        <path fill="#000" d="M7.48 4.113a.303.303 0 0 0-.131-.134.318.318 0 0 0-.189-.034l-2.425.296a.306.306 0 0 0-.266.24L4.014 6.79a.295.295 0 0 0 .156.317l2.143 1.13a.32.32 0 0 0 .362-.045l1.78-1.61a.29.29 0 0 0 .068-.344L7.48 4.113z"/>
    </g>
</svg>
