<svg xmlns="http://www.w3.org/2000/svg" width="14" height="13" viewBox="0 0 14 13">
    <g fill="#000" fill-rule="evenodd">
        <path d="M12.935.73L.585 2.89l.54 2.83 12.351-2.16-.54-2.83zM9.752 2.05l1.375-.241-1.157 1.6-1.375.241 1.157-1.6zm2.603-.182l.208 1.088-1.138.2.93-1.288zm-5.434.676l1.375-.24-1.156 1.6-1.375.241 1.156-1.6zm-2.83.495l1.375-.24-1.157 1.6-1.375.241 1.157-1.6zm-2.594.454l1.138-.2-.93 1.288-.208-1.088zM1.126 12.724H13.68V5.72H1.126v7.005zM2.18 9.597h10.454V6.72H2.18v2.877z"/>
    </g>
</svg>
