<svg xmlns="http://www.w3.org/2000/svg" xmlns:xlink="http://www.w3.org/1999/xlink" width="15" height="14" viewBox="0 0 15 14">
    <defs>
        <path id="a" d="M0 0v13.494h13.878V0H0z"/>
    </defs>
    <g fill="none" fill-rule="evenodd" transform="translate(.812 -.008)">
        <mask id="b" fill="#fff">
            <use xlink:href="#a"/>
        </mask>
        <path fill="#000" d="M11.111 10.798c-.896 0-1.625-.687-1.625-1.532s.729-1.533 1.625-1.533c.897 0 1.626.688 1.626 1.533s-.73 1.532-1.626 1.532zM5.533 2.63l7.204-1.43v1.385l-7.204 1.43V2.63zm-2.767 9.79c-.896 0-1.625-.688-1.625-1.533s.729-1.532 1.625-1.532c.897 0 1.626.687 1.626 1.532s-.73 1.532-1.626 1.532zM13.878.537a.527.527 0 0 0-.211-.418.596.596 0 0 0-.477-.108L4.845 1.668a.546.546 0 0 0-.453.526V8.782a2.86 2.86 0 0 0-1.626-.503C1.241 8.28 0 9.45 0 10.887c0 1.438 1.241 2.607 2.766 2.607 1.526 0 2.767-1.17 2.767-2.607V5.114l7.204-1.43v3.477a2.86 2.86 0 0 0-1.626-.503c-1.525 0-2.766 1.17-2.766 2.608 0 1.437 1.24 2.607 2.766 2.607s2.767-1.17 2.767-2.607v-6.21l-.002-.016.002-.018V.538z" mask="url(#b)"/>
    </g>
</svg>
