<svg xmlns="http://www.w3.org/2000/svg" width="14" height="14" viewBox="0 0 14 14">
    <path fill="#000" fill-rule="evenodd" d="M11.849 7.074c-.603 0-1.097-.48-1.097-1.064 0-.585.494-1.065 1.097-1.065.602 0 1.097.48 1.097 1.065 0 .6-.495 1.064-1.097 1.064zm0 2.654c-.603 0-1.097-.48-1.097-1.064 0-.585.494-1.065 1.097-1.065.602 0 1.097.48 1.097 1.065 0 .6-.495 1.064-1.097 1.064zm-1.637 1.604c0 .585-.495 1.065-1.097 1.065H2.55c-.602 0-1.096-.48-1.096-1.065V6.01c0-.585.494-1.065 1.096-1.065h6.565c.602 0 1.097.48 1.097 1.065v5.322zm2.177-7.436H7.74L9.578 1.75c.031 0 .047.015.078.015a.53.53 0 0 0 .54-.524.53.53 0 0 0-.54-.525.53.53 0 0 0-.541.525c0 .06.015.12.03.18L7.03 3.896h-.201L4.697 1.422c.016-.06.031-.12.031-.18a.53.53 0 0 0-.54-.525.53.53 0 0 0-.541.525c0 .3.247.524.54.524.031 0 .062-.015.093-.015l1.838 2.145H1.454c-.603 0-1.097.48-1.097 1.064v7.437c0 .585.494 1.065 1.097 1.065h10.935c.603 0 1.097-.48 1.097-1.065V4.96c0-.585-.479-1.064-1.097-1.064z"/>
</svg>
