<svg xmlns="http://www.w3.org/2000/svg" xmlns:xlink="http://www.w3.org/1999/xlink" width="14" height="18" viewBox="0 0 14 18">
    <defs>
        <path id="a" d="M.042 16.414h12.783V.013H.042v16.4z"/>
    </defs>
    <g fill="none" fill-rule="evenodd">
        <path fill="#000" d="M1.385 5.932c.486.076 1.306.025 2.151-.71.41-.381.871-.305 1.102-.254.359.101.59.33.64.507.282 1.04-.179 1.396-.768 1.853-.512.38-1.255.99-.743 2.055.282.558.359.964.256 1.218-.102.203-.358.406-.845.583a4.517 4.517 0 0 1-2.024-3.78c0-.533.077-1.015.23-1.472m4.381-3.121a4.73 4.73 0 0 1 2.306.609c-.487.304-.769.787-.769 1.42 0 .889.385 1.625.718 2.208.179.356.41.762.358.914-.256.685-.23 1.345.077 1.801.154.203.41.432.845.559a4.604 4.604 0 0 1-4.944 1.395c.256-.177.487-.431.64-.736.231-.558.129-1.192-.281-2.055-.154-.279-.128-.355.435-.812.64-.482 1.589-1.218 1.128-2.918-.154-.558-.667-1.015-1.333-1.218-.743-.228-1.485-.05-2.075.457-.358.33-.717.431-.973.457A4.639 4.639 0 0 1 5.765 2.81m4.611 4.567c0 .736-.179 1.421-.486 2.03-.23 0-.487-.05-.615-.228s-.103-.508.025-.863c.231-.583-.076-1.167-.41-1.75-.281-.508-.589-1.092-.589-1.726 0-.305.128-.482.385-.61.102-.05.179-.075.281-.1.871.837 1.41 1.979 1.41 3.247m-4.612 5.583c3.1 0 5.636-2.512 5.636-5.583 0-3.07-2.536-5.582-5.636-5.582S.13 4.308.13 7.378s2.536 5.583 5.636 5.583"/>
        <g transform="translate(.37 .86)">
            <mask id="b" fill="#fff">
                <use xlink:href="#a"/>
            </mask>
            <path fill="#000" d="M12.825 6.518c0-2.69-1.486-5.151-3.843-6.445-.256-.127-.563-.05-.691.203-.128.254-.052.558.205.685 2.049 1.117 3.33 3.248 3.33 5.557 0 3.502-2.87 6.343-6.405 6.343-1.69 0-3.304-.66-4.508-1.826-.205-.203-.538-.203-.718 0-.205.202-.205.532 0 .71a7.524 7.524 0 0 0 4.714 2.106v1.548H3.372a.511.511 0 0 0-.512.507c0 .28.23.508.512.508h4.124a.511.511 0 0 0 .513-.508c0-.279-.23-.507-.513-.507H5.934V13.85c3.842-.254 6.891-3.425 6.891-7.333" mask="url(#b)"/>
        </g>
    </g>
</svg>
